<?xml version="1.0" encoding="UTF-8"?>
<svg id="Layer_2" xmlns="http://www.w3.org/2000/svg" viewBox="0 0 56.69 56.69">
  <defs>
    <style>
      .cls-1 {
        fill: #ae9d9d;
      }

      .cls-2 {
        fill: #92bf5a;
      }

      .cls-3 {
        fill: #3d8d4a;
      }
    </style>
  </defs>
  <path class="cls-1" d="M27.32,44.09h3.44v9.99c0,.66-.54,1.2-1.2,1.2h-1.05c-.66,0-1.2-.54-1.2-1.2v-9.99h0Z"/>
  <path class="cls-2" d="M12.8,26.16c1.71-5.42,3.74-10.73,6.01-15.94C20.78,5.7,23.63-.28,29.74,1.87c2.85,1,4.83,3.34,6.63,5.66,1.85,2.38,3.53,4.89,4.95,7.55.03.05.05.1.07.14,3.52,4.79,6.17,10.1,6.85,16.26.29,2.65.3,5.63-1.03,8.03-1.35,2.43-3.78,4.04-6.28,5.13-4.75,2.08-10,2.26-15.1,1.79-4.52-.41-10.43-.59-13.61-4.35-3.81-4.51-.96-11.05.58-15.93Z"/>
  <g>
    <path class="cls-3" d="M33.55,22.31s-.02,0-.03,0c0,0,0,0,0,0,0,0,0,0-.01,0,.03,0,.05,0,.04,0Z"/>
    <path class="cls-3" d="M32.32,23.03c.03.08.08.2.17.31.25.32.59.41.8.47.29.08.6.11.9.05.56-.11,1.04-.51,1.23-1.05.17-.49.06-1.05-.29-1.42-.17-.18-.39-.32-.63-.38-.29-.07-.57-.06-.86,0-.44.07-.91.25-1.15.65-.13.21-.17.44-.15.66-.01.05-.02.12-.04.21-.01.09-.02.14-.02.21,0,.07,0,.18.04.31Z"/>
  </g>
  <path class="cls-3" d="M23.25,23.58c.05-.51.26-1.04.77-1.24.43-.17.9-.19,1.35-.08.53.13.96.58,1.05,1.12.05.29.02.59-.07.87-.08.24-.21.47-.33.7-.12.22-.36.27-.44.29-.18.07-.33.08-.43.08-.14.02-.37.04-.63,0-.17-.03-.63-.12-.95-.5-.41-.48-.33-1.09-.31-1.23Z"/>
  <path class="cls-3" d="M28.85,24.72c0,.09.02.18.07.27.05.11.13.19.23.26.03.02.06.03.09.04.02.01.06.03.08.04,0,0,.01,0,.02,0,.03.01.07.02.1.02.03,0,.07.02.1.02,0,0,.01,0,.02,0,0,0,0,0,0,0,.05,0,.13,0,.19-.01.01,0,.02,0,.04,0,0,0,0,0,.01,0,.06-.02.12-.04.18-.06,0,0,.01,0,.02,0,0,0,.01,0,.02,0,0,0,0,0,0,0,.05-.03.11-.07.15-.1,0,0,.02-.02.03-.02,0,0,.02-.02.03-.03l.08-.05c.09-.08.15-.18.19-.29.01-.06.02-.12.04-.17.01-.1,0-.19-.04-.27-.02-.09-.07-.17-.13-.23-.06-.07-.13-.12-.21-.15-.08-.05-.16-.07-.25-.07-.02,0-.03,0-.05,0-.07,0-.15,0-.22.01-.02,0-.03,0-.05,0,0,0-.02,0-.02,0-.06.02-.13.04-.19.07-.03.01-.06.03-.08.04-.05.04-.11.07-.16.11,0,0-.01.01-.02.02-.01.01-.02.02-.03.03-.09.08-.15.18-.19.29-.03.09-.04.18-.03.27Z"/>
  <g>
    <path class="cls-3" d="M29.61,31.17s.03,0,.05-.01c0,0,0,0,0,0,0,0,0,0,0,0-.06.01-.07.02-.05.01Z"/>
    <path class="cls-3" d="M30.88,27.59c-.28-.04-.58.01-.86.03l-.87.05c-.63.03-1.26.07-1.89.1-.36.02-.72.23-.73.64,0,.02.01.05.01.08-.07.13-.1.28-.09.45.09,1.04.25,2.16,1.02,2.93.75.75,1.78.91,2.75.54.94-.35,1.54-1.22,1.72-2.18.08-.43.07-.88-.01-1.31-.12-.6-.37-1.24-1.05-1.33ZM30.6,30.01s0,0,0,.01c0,.03-.02.07-.03.1-.02.08-.05.17-.09.25,0,0-.01.02-.02.04-.01.02-.04.08-.05.09-.04.08-.09.15-.15.22,0,0-.03.03-.04.05-.01.01-.03.03-.03.03-.06.06-.13.11-.19.17,0,0,0,0-.01,0,0,0,0,0,.02,0,0,0-.01,0-.02.01-.02.01-.04.03-.04.02-.03.02-.06.04-.09.05-.07.04-.14.07-.21.1,0,0,0,0,.01,0,0,0-.01,0-.02,0-.02,0-.03.01-.05.01-.02,0-.03,0-.05.01-.07.02-.15.03-.22.04-.01,0-.01,0-.02,0-.04,0-.09,0-.13,0-.07,0-.15-.01-.22-.02.16.02-.08-.03-.12-.04-.03-.01-.06-.03-.1-.04,0,0,0,0,0,0-.04-.03-.09-.06-.13-.09,0,0-.06-.05-.08-.07-.02-.02-.04-.04-.05-.05-.04-.05-.09-.09-.13-.14,0,0-.02-.03-.04-.05-.01-.02-.05-.08-.06-.09-.05-.09-.1-.19-.15-.29-.02-.04-.03-.08-.05-.12,0-.02-.01-.03-.02-.04,0-.01,0-.03-.01-.05-.1-.34-.14-.7-.18-1.05.69-.04,1.38-.07,2.07-.11.2-.01.4-.02.6-.03.04.14.08.27.09.42,0,.04,0,.08.01.11,0,.1,0,.2,0,.3,0,.08-.02.16-.03.24Z"/>
    <path class="cls-3" d="M30,30.99s0,0,0,0c-.02.01-.03.02-.04.02.01,0,.02-.01.04-.02Z"/>
  </g>
</svg>