<?xml version="1.0" encoding="UTF-8"?>
<svg id="Layer_2" xmlns="http://www.w3.org/2000/svg" viewBox="0 0 56.69 56.69">
  <defs>
    <style>
      .cls-1 {
        fill: #ae9d9d;
      }

      .cls-2 {
        fill: #b15274;
      }

      .cls-3 {
        fill: #e2889f;
      }
    </style>
  </defs>
  <path class="cls-1" d="M26.97,53.07c.14-.34.16-.7-.05-1.05v-5.83h-2.13v4.93c-.64-.04-1.21.12-1.72.55-.55.46-1.09,1.14-1.2,1.87-.07.48.09.98.42,1.3.15.19.36.33.65.38.64.12,1.32-.08,1.9-.36.11-.05.22-.12.33-.18.43-.17.85-.41,1.2-.7.3-.25.5-.58.6-.94Z"/>
  <path class="cls-1" d="M35.22,52.71c.14-.34.16-.7-.05-1.05v-5.83h-2.13v4.93c-.64-.04-1.21.12-1.72.55-.55.46-1.09,1.14-1.2,1.87-.07.48.09.98.42,1.3.15.19.36.33.65.38.64.12,1.32-.08,1.9-.36.11-.05.22-.12.33-.18.43-.17.85-.41,1.2-.7.3-.25.5-.58.6-.94Z"/>
  <path class="cls-3" d="M45.51,26.23c-1.72-5.44-3.75-10.76-6.03-15.99-1.98-4.54-4.84-10.53-10.96-8.38-2.86,1.01-4.85,3.35-6.66,5.68-1.86,2.39-3.54,4.91-4.97,7.58-.03.05-.05.1-.07.14-3.53,4.81-6.19,10.13-6.87,16.31-.29,2.66-.31,5.65,1.03,8.05,1.36,2.44,3.79,4.05,6.3,5.15,4.77,2.09,10.03,2.27,15.15,1.8,4.54-.41,10.46-.59,13.65-4.36,3.82-4.53.97-11.09-.58-15.98Z"/>
  <g>
    <g>
      <path class="cls-2" d="M32.36,23.01s-.02,0-.03-.01c0,0,0,0,0,0,0,0,0,0-.01,0,.04,0,.05.02.05.02Z"/>
      <path class="cls-2" d="M30.75,23.56c.02.1.05.25.13.41.22.43.6.62.83.74.32.17.68.27,1.05.27.68,0,1.34-.35,1.69-.95.31-.53.31-1.22,0-1.74-.15-.25-.38-.47-.65-.6-.32-.15-.66-.2-1.01-.21-.53-.02-1.13.08-1.51.49-.2.21-.3.47-.33.74-.02.06-.06.14-.09.24-.04.1-.06.17-.08.24-.02.09-.04.21-.03.38Z"/>
    </g>
    <path class="cls-2" d="M21.71,22.25c.15-.49.47-.97,1.01-1.07.45-.09.92,0,1.34.19.5.23.83.76.81,1.31-.01.3-.1.58-.24.84-.13.23-.3.42-.46.62-.16.19-.41.19-.49.2-.19.03-.34.01-.44,0-.15,0-.37-.03-.62-.13-.17-.07-.59-.24-.84-.68-.31-.55-.11-1.13-.06-1.28Z"/>
    <path class="cls-2" d="M27,24.48c-.02.09-.02.18.01.27.03.12.09.22.18.3.02.02.05.04.08.06.02.02.05.04.08.06,0,0,.01,0,.02,0,.03.02.07.03.1.04.03.01.06.03.1.04,0,0,.01,0,.02,0,0,0,0,0,0,0,.05,0,.13.02.19.03.01,0,.02,0,.04,0,0,0,0,0,.01,0,.06,0,.13-.02.19-.03,0,0,.01,0,.02,0,0,0,.01,0,.02,0,0,0,0,0,0,0,.05-.02.12-.05.17-.07.01,0,.02-.01.03-.02.01,0,.02-.02.03-.03l.09-.04c.1-.06.19-.14.25-.25.02-.05.05-.11.07-.16.03-.09.03-.18.01-.27,0-.09-.03-.18-.08-.26-.04-.08-.1-.14-.18-.19-.07-.06-.14-.1-.23-.12-.02,0-.03,0-.05-.01-.07-.01-.15-.02-.22-.03-.02,0-.03,0-.05,0,0,0-.02,0-.02,0-.07,0-.13.02-.2.03-.03,0-.06.01-.09.03-.06.02-.12.05-.18.08,0,0-.01,0-.02.01-.01,0-.03.02-.04.03-.1.06-.19.14-.25.25-.05.08-.08.16-.08.26Z"/>
    <path class="cls-2" d="M26.15,27.37c.46.84,1.32,1.52,2.25,1.57.93.05,1.78-.43,2.16-1.31.15-.34.65-.42.94-.25.35.21.39.6.25.94-.54,1.27-1.99,2.06-3.35,1.99-1.45-.08-2.75-1-3.44-2.25-.43-.78.76-1.47,1.19-.69Z"/>
  </g>
</svg>