<?xml version="1.0" encoding="UTF-8"?>
<svg xmlns="http://www.w3.org/2000/svg" version="1.1" viewBox="0 0 1700.79 1700.79">
  <defs>
    <style>
      .cls-1 {
        fill: #5aadd6;
      }

      .cls-2 {
        fill: #ae9d9d;
      }

      .cls-3 {
        fill: #e5ae49;
      }

      .cls-4 {
        fill: #e2889f;
      }

      .cls-5 {
        fill: #d58f31;
      }

      .cls-6 {
        fill: #c95f80;
      }

      .cls-7 {
        fill: #92bf5a;
      }

      .cls-8 {
        fill: #3d8d4a;
      }
    </style>
  </defs>
  <!-- Generator: Adobe Illustrator 28.6.0, SVG Export Plug-In . SVG Version: 1.2.0 Build 709)  -->
  <g>
    <g id="Layer_1">
      <g>
        <path class="cls-1" d="M806.69,294.29c-37.24-26.55-76.98-50.61-124.2-45.99-21.66,2.12-42.1,8.74-61.67,18.33-16.34,8.02-42.35,35.71-60.52,28.61-9.5-3.71-17.73-13.11-25.87-19.2-9.88-7.4-20.04-13.7-31.32-18.64-19.87-8.69-41.99-12.78-63.62-11.12-44.2,3.38-81.69,27.96-106.2,65.02-15.56,23.53,21.78,45.58,37.24,22.2,22.38-33.85,62.61-50.8,101.81-40.57,36.66,9.57,61.81,53.11,102.01,48,16.89-2.15,29.51-12.66,43.3-21.87,16.39-10.94,34.07-20.03,53.24-24.58,44.04-10.44,79.47,13.13,114.03,37.77,22.8,16.26,44.37-21.86,21.77-37.98Z"/>
        <path class="cls-1" d="M806.69,480.65c-37.24-26.55-76.98-50.61-124.2-45.99-21.66,2.12-42.1,8.74-61.67,18.33-16.34,8.02-42.35,35.71-60.52,28.61-9.5-3.71-17.73-13.11-25.87-19.2-9.88-7.4-20.04-13.7-31.32-18.64-19.87-8.69-41.99-12.78-63.62-11.12-44.2,3.38-81.69,27.96-106.2,65.02-15.56,23.53,21.78,45.58,37.24,22.2,22.38-33.85,62.61-50.8,101.81-40.57,36.66,9.57,61.81,53.11,102.01,48,16.89-2.15,29.51-12.66,43.3-21.87,16.39-10.94,34.07-20.03,53.24-24.58,44.04-10.44,79.47,13.13,114.03,37.77,22.8,16.26,44.37-21.86,21.77-37.98Z"/>
        <path class="cls-1" d="M806.69,667.01c-37.24-26.55-76.98-50.61-124.2-45.99-21.66,2.12-42.1,8.74-61.67,18.33-16.34,8.02-42.35,35.71-60.52,28.61-9.5-3.71-17.73-13.11-25.87-19.2-9.88-7.4-20.04-13.7-31.32-18.64-19.87-8.69-41.99-12.78-63.62-11.12-44.2,3.38-81.69,27.96-106.2,65.02-15.56,23.53,21.78,45.58,37.24,22.2,22.38-33.85,62.61-50.8,101.81-40.57,36.66,9.57,61.81,53.11,102.01,48,16.89-2.15,29.51-12.66,43.3-21.87,16.39-10.94,34.07-20.03,53.24-24.58,44.04-10.44,79.47,13.13,114.03,37.77,22.8,16.26,44.37-21.86,21.77-37.98Z"/>
        <g>
          <path class="cls-2" d="M1115.72,821.75c1.68-3.91,1.83-8.17-.59-12.19v-67.84h-24.77v57.43c-7.45-.44-14.08,1.43-20.06,6.45-6.41,5.38-12.75,13.33-13.97,21.8-.81,5.58,1.01,11.37,4.92,15.16,1.73,2.21,4.23,3.84,7.54,4.46,7.48,1.4,15.37-.98,22.1-4.14,1.32-.62,2.61-1.34,3.9-2.06,5.06-2.01,9.92-4.78,13.93-8.15,3.46-2.9,5.87-6.73,7-10.92Z"/>
          <path class="cls-2" d="M1211.79,817.55c1.68-3.91,1.83-8.17-.59-12.19v-67.84h-24.77v57.43c-7.45-.44-14.08,1.43-20.06,6.45-6.41,5.38-12.75,13.33-13.97,21.8-.81,5.58,1.01,11.37,4.92,15.16,1.73,2.21,4.23,3.84,7.54,4.46,7.48,1.4,15.37-.98,22.1-4.14,1.32-.62,2.61-1.34,3.9-2.06,5.06-2.01,9.92-4.78,13.93-8.15,3.46-2.9,5.87-6.73,7-10.92Z"/>
          <path class="cls-4" d="M1331.65,509.32c-19.97-63.3-43.64-125.32-70.17-186.16-23.02-52.8-56.33-122.61-127.62-97.52-33.34,11.73-56.47,39.06-77.48,66.08-21.66,27.84-41.21,57.11-57.87,88.23-.3.55-.56,1.12-.86,1.68-41.12,55.99-72.08,117.99-79.99,189.92-3.4,30.95-3.55,65.76,12.04,93.76,15.82,28.42,44.17,47.21,73.31,59.95,55.53,24.28,116.81,26.38,176.39,20.96,52.82-4.81,121.83-6.84,158.97-50.79,44.53-52.69,11.26-129.12-6.73-186.1Z"/>
          <g>
            <g>
              <path class="cls-6" d="M1178.51,471.82c-.13-.05-.25-.08-.38-.12-.01,0-.01,0-.02-.01-.05-.03-.09-.05-.14-.08.45.09.61.19.55.21Z"/>
              <path class="cls-6" d="M1159.75,478.19c.19,1.2.59,2.91,1.53,4.78,2.51,5.01,6.96,7.25,9.68,8.67,3.77,1.96,7.96,3.12,12.22,3.14,7.92.04,15.65-4.12,19.67-11.01,3.61-6.2,3.64-14.15-.11-20.3-1.79-2.94-4.41-5.51-7.53-7-3.72-1.77-7.69-2.34-11.78-2.48-6.18-.21-13.17.91-17.58,5.66-2.31,2.49-3.51,5.52-3.82,8.63-.28.67-.66,1.61-1.07,2.75-.41,1.16-.69,1.93-.89,2.79-.24,1-.47,2.48-.33,4.37Z"/>
            </g>
            <path class="cls-6" d="M1054.51,462.93c1.77-5.72,5.42-11.26,11.73-12.45,5.29-1,10.75-.06,15.59,2.2,5.77,2.7,9.66,8.81,9.42,15.21-.13,3.48-1.14,6.77-2.84,9.81-1.47,2.62-3.48,4.95-5.41,7.24-1.89,2.25-4.79,2.19-5.67,2.35-2.17.38-3.99.17-5.11-.05-1.7-.08-4.3-.38-7.2-1.55-1.93-.77-6.93-2.78-9.79-7.89-3.59-6.42-1.24-13.2-.73-14.85Z"/>
            <path class="cls-6" d="M1116.09,488.88c-.24,1.07-.19,2.13.14,3.2.38,1.36,1.07,2.54,2.06,3.54.29.24.61.48.89.69.25.19.58.46.88.67.06.04.12.08.18.11.35.19.81.35,1.12.48.32.13.75.35,1.13.47.07.02.14.04.21.05.03,0,.07.01.11.02.63.11,1.55.22,2.18.29.14.02.28.02.43.01.04,0,.09,0,.13-.01.67-.07,1.51-.18,2.18-.29.07-.01.14-.02.21-.04.07-.02.14-.04.2-.06.03-.01.07-.02.1-.04.62-.24,1.36-.56,1.96-.83.13-.06.25-.13.37-.21.12-.09.26-.2.39-.3l1.02-.43c1.2-.71,2.16-1.67,2.87-2.87.27-.64.54-1.28.81-1.91.33-1.06.38-2.13.14-3.2-.05-1.07-.37-2.06-.95-2.98-.5-.93-1.19-1.68-2.06-2.25-.77-.71-1.68-1.19-2.73-1.43-.18-.06-.37-.11-.55-.14-.86-.16-1.73-.28-2.6-.35-.18-.01-.36-.01-.54,0-.1,0-.19.01-.29.02-.77.09-1.55.19-2.32.31-.37.06-.72.16-1.07.31-.7.29-1.41.56-2.09.89-.09.04-.17.09-.25.13-.16.09-.31.19-.45.3-1.2.71-2.16,1.67-2.87,2.87-.59.92-.9,1.91-.95,2.98Z"/>
            <path class="cls-6" d="M1106.17,522.57c5.41,9.79,15.4,17.72,26.24,18.31,10.8.58,20.74-5.01,25.13-15.25,1.71-3.98,7.56-4.87,10.96-2.87,4.11,2.41,4.59,6.97,2.87,10.96-6.33,14.77-23.16,24.02-38.97,23.19-16.93-.89-31.99-11.61-40.08-26.25-4.99-9.03,8.84-17.13,13.84-8.09Z"/>
          </g>
        </g>
        <g>
          <path class="cls-2" d="M566.39,1366.28h40.41v117.26c0,7.76-6.3,14.06-14.06,14.06h-12.28c-7.76,0-14.06-6.3-14.06-14.06v-117.26h0Z"/>
          <path class="cls-7" d="M396.04,1155.84c20.07-63.6,43.85-125.93,70.51-187.05,23.13-53.06,56.6-123.2,128.24-97.99,33.5,11.79,56.74,39.25,77.86,66.4,21.76,27.98,41.41,57.39,58.15,88.66.3.56.56,1.13.86,1.69,41.32,56.26,72.43,118.56,80.37,190.83,3.42,31.1,3.57,66.08-12.1,94.21-15.9,28.56-44.38,47.43-73.67,60.23-55.79,24.4-117.37,26.51-177.24,21.06-53.08-4.83-122.41-6.87-159.74-51.04-44.75-52.95-11.31-129.74,6.76-187Z"/>
          <g>
            <path class="cls-8" d="M639.56,1110.75c-.12-.02-.22-.02-.34-.04,0,0-.01,0-.02,0-.04-.02-.08-.03-.13-.04.38,0,.53.05.49.09Z"/>
            <path class="cls-8" d="M625.15,1119.12c.36.95.97,2.3,2.05,3.69,2.9,3.71,6.94,4.82,9.41,5.53,3.43.99,7.08,1.25,10.6.56,6.53-1.28,12.22-6,14.38-12.34,1.94-5.71.65-12.27-3.46-16.72-1.96-2.13-4.55-3.81-7.37-4.52-3.36-.85-6.73-.65-10.12-.08-5.13.86-10.7,2.93-13.55,7.58-1.49,2.43-1.98,5.13-1.71,7.75-.12.6-.28,1.44-.43,2.45-.15,1.02-.25,1.7-.27,2.45-.03.87.03,2.12.46,3.66Z"/>
          </g>
          <path class="cls-8" d="M518.59,1125.6c.6-5.99,3.1-12.17,9.09-14.6,5.01-2.03,10.58-2.19,15.79-.93,6.22,1.51,11.26,6.76,12.3,13.11.57,3.45.22,6.9-.85,10.22-.93,2.87-2.44,5.56-3.89,8.2-1.42,2.59-4.28,3.11-5.11,3.44-2.06.8-3.89.96-5.05.96-1.69.26-4.31.48-7.4-.1-2.05-.38-7.37-1.37-11.21-5.83-4.82-5.61-3.84-12.76-3.67-14.48Z"/>
          <path class="cls-8" d="M584.41,1138.93c-.02,1.1.23,2.14.78,3.12.64,1.26,1.56,2.29,2.73,3.07.33.18.7.35,1.02.51.29.14.66.34,1,.49.06.03.13.05.2.07.38.12.87.19,1.2.25.34.07.81.19,1.21.24.07,0,.14.01.21.01.04,0,.07,0,.11,0,.64-.02,1.57-.09,2.21-.14.14-.01.28-.03.42-.07.04-.01.09-.02.13-.04.65-.2,1.45-.48,2.09-.72.07-.03.13-.05.2-.08.06-.03.13-.06.19-.1.03-.02.06-.04.09-.06.56-.36,1.23-.82,1.77-1.21.12-.08.22-.18.32-.28.1-.11.21-.25.32-.37l.92-.63c1.04-.94,1.8-2.07,2.26-3.4.14-.68.28-1.36.42-2.05.12-1.12-.05-2.17-.49-3.18-.26-1.04-.77-1.96-1.53-2.75-.68-.82-1.51-1.42-2.48-1.8-.9-.54-1.89-.83-2.97-.87-.19-.02-.38-.03-.57-.03-.88.01-1.76.06-2.63.18-.18.02-.36.06-.53.1-.09.02-.19.05-.28.08-.74.24-1.49.5-2.22.77-.35.13-.68.31-.99.51-.63.42-1.28.83-1.88,1.29-.08.06-.15.12-.22.18-.14.12-.27.25-.39.38-1.04.94-1.8,2.07-2.26,3.4-.39,1.02-.51,2.06-.34,3.12Z"/>
          <g>
            <path class="cls-8" d="M593.28,1214.69c.18-.05.35-.1.53-.15.02,0,.04,0,.06-.02,0,0,0,0,.01,0-.7.17-.77.2-.6.17Z"/>
            <path class="cls-8" d="M608.19,1172.63c-3.29-.45-6.83.12-10.14.3-3.39.18-6.78.36-10.17.54-7.39.39-14.79.78-22.18,1.18-4.19.22-8.48,2.76-8.6,7.47,0,.29.12.6.15.9-.78,1.55-1.17,3.34-1,5.32,1.05,12.16,2.94,25.35,11.99,34.42,8.75,8.76,20.86,10.66,32.26,6.38,11.04-4.14,18.06-14.28,20.22-25.56.96-5.03.85-10.32-.15-15.33-1.41-7.05-4.33-14.51-12.37-15.61ZM604.9,1201.08c-.01.08-.01.07-.02.14-.1.4-.19.8-.31,1.2-.28,1-.62,1.97-1,2.94-.03.08-.12.29-.2.5-.14.25-.47.94-.54,1.06-.52.9-1.1,1.77-1.72,2.59-.07.09-.3.37-.47.56-.16.16-.33.33-.39.39-.72.71-1.49,1.34-2.28,1.96-.03.03-.08.05-.12.08.08-.04.09-.05.19-.11-.07.04-.14.08-.21.12-.24.16-.51.3-.42.24-.37.22-.73.44-1.11.64-.79.42-1.6.77-2.42,1.12.06-.01.07-.02.14-.04-.07.02-.14.04-.2.06-.18.07-.4.12-.53.15-.18.05-.37.11-.55.15-.86.22-1.74.34-2.61.5-.12.02-.13.03-.22.04-.53.02-1.05.03-1.58,0-.88-.04-1.74-.14-2.61-.27,1.86.27-.99-.34-1.44-.5-.38-.14-.75-.31-1.13-.46-.04-.03,0-.02-.05-.05-.48-.37-1.07-.65-1.57-1.01-.1-.07-.72-.58-.98-.78-.21-.21-.48-.47-.54-.54-.52-.54-1.01-1.1-1.48-1.68-.06-.07-.28-.36-.46-.59-.17-.28-.64-.98-.7-1.08-.64-1.08-1.21-2.21-1.71-3.36-.2-.46-.39-.93-.58-1.39-.08-.21-.13-.31-.18-.43-.04-.15-.09-.34-.17-.63-1.14-4.05-1.7-8.18-2.15-12.34,8.11-.43,16.23-.86,24.34-1.29,2.36-.12,4.73-.28,7.1-.37.45,1.61.88,3.21,1.11,4.88.06.45.1.9.16,1.35.03,1.16.02,2.32-.07,3.47-.07.93-.19,1.84-.32,2.76Z"/>
            <path class="cls-8" d="M597.83,1212.52s0,0,.01-.01c-.25.14-.4.23-.43.25.14-.08.28-.16.42-.24Z"/>
          </g>
        </g>
        <g>
          <path class="cls-2" d="M1117.12,1370.76h40.07v116.28c0,7.7-6.25,13.95-13.95,13.95h-12.17c-7.7,0-13.95-6.25-13.95-13.95v-116.28h0Z"/>
          <path class="cls-3" d="M1329.94,1164.18c-19.9-63.07-43.48-124.88-69.92-185.5-22.94-52.62-56.13-122.18-127.17-97.17-33.22,11.69-56.27,38.92-77.21,65.84-21.58,27.75-41.06,56.91-57.66,87.92-.3.55-.56,1.12-.85,1.67-40.98,55.79-71.83,117.57-79.71,189.25-3.39,30.84-3.54,65.53,12,93.43,15.77,28.32,44.01,47.04,73.05,59.73,55.33,24.19,116.4,26.29,175.76,20.89,52.63-4.79,121.4-6.81,158.41-50.61,44.37-52.51,11.22-128.66-6.7-185.45Z"/>
          <g>
            <path class="cls-5" d="M1177.34,1126.81c-.13-.05-.25-.08-.38-.12-.01,0-.01,0-.02-.01-.04-.03-.09-.05-.14-.08.44.09.6.19.54.21Z"/>
            <path class="cls-5" d="M1158.65,1133.15c.19,1.19.59,2.9,1.52,4.76,2.5,4.99,6.94,7.23,9.64,8.64,3.76,1.96,7.93,3.11,12.18,3.13,7.89.04,15.6-4.11,19.6-10.98,3.6-6.17,3.63-14.1-.11-20.23-1.78-2.93-4.39-5.49-7.5-6.97-3.7-1.77-7.66-2.33-11.74-2.47-6.16-.2-13.12.9-17.51,5.64-2.3,2.48-3.5,5.5-3.8,8.6-.28.67-.66,1.61-1.07,2.74-.41,1.15-.68,1.92-.89,2.78-.24,1-.47,2.47-.33,4.36Z"/>
          </g>
          <path class="cls-5" d="M1053.78,1117.95c1.76-5.7,5.4-11.22,11.69-12.41,5.27-.99,10.71-.06,15.53,2.19,5.75,2.69,9.62,8.78,9.39,15.16-.13,3.47-1.14,6.75-2.83,9.77-1.46,2.61-3.46,4.93-5.39,7.21-1.89,2.24-4.77,2.19-5.65,2.34-2.16.38-3.97.17-5.09-.05-1.69-.08-4.28-.38-7.18-1.55-1.92-.77-6.9-2.77-9.75-7.87-3.58-6.4-1.24-13.16-.73-14.8Z"/>
          <path class="cls-5" d="M1115.15,1143.81c-.24,1.06-.19,2.12.14,3.18.38,1.35,1.06,2.53,2.05,3.52.29.24.61.48.89.69.25.19.57.46.87.67.06.04.12.08.18.11.35.19.81.35,1.12.48.32.13.75.35,1.13.47.07.02.14.04.21.05.03,0,.07.01.1.02.63.11,1.54.22,2.17.29.14.02.28.02.43.01.04,0,.09,0,.13-.01.67-.07,1.51-.18,2.18-.29.07-.01.14-.02.21-.04.07-.02.14-.04.2-.06.03-.01.07-.02.1-.04.61-.24,1.36-.55,1.96-.83.13-.06.25-.13.37-.21.12-.09.26-.2.39-.3l1.01-.43c1.2-.71,2.15-1.66,2.86-2.86.27-.64.54-1.27.8-1.91.33-1.06.38-2.12.14-3.18-.05-1.06-.36-2.05-.95-2.97-.5-.93-1.19-1.68-2.06-2.24-.77-.71-1.68-1.18-2.72-1.43-.18-.06-.37-.11-.55-.14-.86-.16-1.72-.28-2.59-.35-.18-.01-.36-.01-.54,0-.1,0-.19.01-.28.02-.77.09-1.55.19-2.31.31-.37.06-.72.16-1.06.3-.69.29-1.4.56-2.08.88-.09.04-.17.09-.25.13-.16.09-.31.19-.45.29-1.2.71-2.16,1.66-2.86,2.86-.58.92-.9,1.91-.95,2.97Z"/>
          <path class="cls-5" d="M1105.26,1177.38c5.39,9.75,15.35,17.66,26.15,18.25,10.76.58,20.67-4.99,25.04-15.2,1.7-3.96,7.53-4.85,10.92-2.86,4.1,2.4,4.57,6.95,2.86,10.92-6.31,14.72-23.08,23.94-38.83,23.11-16.87-.89-31.88-11.57-39.94-26.15-4.98-9,8.81-17.07,13.79-8.06Z"/>
        </g>
      </g>
    </g>
  </g>
</svg>